<svg width="219" height="92" viewBox="0 0 219 92" fill="none" xmlns="http://www.w3.org/2000/svg">
<rect x="0.498535" width="217.865" height="91.2958" rx="32" fill="white"/>
<path d="M57.928 32.2954C57.9287 32.3485 57.9299 32.4039 57.9299 32.4578C57.9299 38.0125 53.4297 42.5174 47.881 42.5174C42.3322 42.5174 37.832 38.0125 37.832 32.4578C37.832 26.9031 42.3307 22.3982 47.8798 22.3982C47.9113 22.3982 47.9441 22.3982 47.9756 22.3982C53.4316 22.3982 57.8717 26.7956 57.9287 32.2574L57.928 32.2954Z" fill="#1B9DD9"/>
<path d="M57.9277 58.9805C57.9292 59.0499 57.9304 59.1208 57.9304 59.1911C57.9304 64.7457 53.4302 69.2507 47.8814 69.2507C42.3327 69.2507 37.8325 64.7457 37.8325 59.1911C37.8325 53.6364 42.33 49.1324 47.879 49.1315C47.911 49.1311 47.9439 49.1311 47.9753 49.1311C53.4277 49.1311 57.8653 53.5235 57.9275 58.9805H57.9277V58.9805Z" fill="#E6352B"/>
<path d="M125.287 37.7988H111.576V33.8842H123.824V28.4096H111.576V24.5811H125.076V18.6853L104.577 18.685V43.7044H125.287V37.7988V37.7988ZM81.8598 48.0498H70.9219V73.1268H77.9972V65.9771H81.4966C87.8451 65.9771 92.4728 62.8664 92.4728 56.9705C92.4728 51.3041 88.3135 48.0498 81.8598 48.0498V48.0498ZM81.3531 60.4926H77.9972V53.8787H81.3149C83.8675 53.8787 85.3977 55.0272 85.3977 57.1713C85.3977 59.3154 83.8675 60.4926 81.3531 60.4926ZM102.493 48.0498L91.612 73.1268H99.0508L100.867 68.6855L110.734 68.6859L112.589 73.1272L120.181 73.1268L109.31 48.088L102.493 48.0498V48.0498ZM102.971 63.2875L105.504 57.066H106.193L108.688 63.2875H102.971V63.2875ZM144.782 34.1425H147.565L150.385 34.2194C150.135 34.784 149.788 35.3031 149.362 35.7506C148.68 36.4842 147.864 37.0865 146.962 37.521V37.5213C145.949 37.9887 144.844 38.2329 143.727 38.2329C143.652 38.2329 143.576 38.2312 143.501 38.2292C143.489 38.2296 143.474 38.2296 143.462 38.2296C139.634 38.2296 136.53 35.1221 136.53 31.2905C136.53 27.5995 139.418 24.553 143.1 24.3608C143.114 24.3604 143.132 24.3604 143.146 24.3604C145.409 24.3604 147.591 25.2034 149.266 26.7244L153.416 21.8238C150.686 19.4693 147.195 18.1687 143.589 18.1687C143.418 18.1687 143.24 18.1723 143.07 18.1777C135.154 18.1777 129.321 23.9205 129.321 31.1852C129.321 38.8424 135.269 44.2022 143.214 44.2022C143.269 44.2029 143.331 44.2029 143.387 44.2029C147.351 44.2029 151.2 42.8492 154.295 40.373L154.295 29.0986H144.801L144.782 34.1425V34.1425ZM168.322 18.6657L157.46 43.6853H164.899L166.715 39.2537H176.563L178.418 43.6853H186L175.139 18.6657H168.322ZM168.79 33.8938L171.295 27.7682H172.05L174.517 33.8938H168.79V33.8938ZM146.446 56.6642C146.453 56.5307 146.457 56.3937 146.457 56.2593C146.457 54.1928 145.642 52.2082 144.19 50.7391C142.469 49.0544 139.773 48.0494 135.872 48.0494L123.805 48.0498V73.1268H130.88V65.4698H133.978L139.122 73.0504H147.287L141.196 64.3214C144.346 63.1944 146.449 60.2064 146.449 56.8587C146.449 56.7941 146.447 56.7282 146.447 56.6642H146.446V56.6642ZM135.594 60.0621H130.928V54.0609L135.555 54.0606C137.927 54.0606 139.38 55.0178 139.38 57.0278C139.38 59.0376 137.955 60.0621 135.594 60.0621ZM152.708 48.0498V73.1268H159.812V48.0498H152.708Z" fill="black"/>
<path d="M85.6839 29.7015H84.5748L80.7407 18.7324H70.9312V43.7232H78.1595V30.333H78.9338L83.3033 42.6416H86.9079L91.2771 30.333H92.052V43.7232H99.2893V18.7324H89.5179L85.6839 29.7015Z" fill="black"/>
</svg>
