<svg width="169" height="75" viewBox="0 0 169 75" fill="none" xmlns="http://www.w3.org/2000/svg">
<g clip-path="url(#clip0_1722_922)">
<path fill-rule="evenodd" clip-rule="evenodd" d="M55.7024 23.1399C55.7024 25.183 54.0487 26.8392 52.0086 26.8392C49.9691 26.8392 48.3155 25.183 48.3155 23.1399C48.3155 21.0968 49.9691 19.4407 52.0086 19.4407C54.0487 19.4407 55.7024 21.0968 55.7024 23.1399ZM54.4994 32.2845C53.8433 32.4628 52.0121 32.9603 52.0121 32.9603C52.0121 32.9603 52.4593 34.6077 52.6595 35.3553C55.3948 45.5779 49.3154 56.1232 39.1079 58.8626C34.1626 60.1896 28.9979 59.5085 24.5652 56.9451C20.1318 54.3817 16.9605 50.2429 15.6355 45.2909C15.6349 45.2886 15.6337 45.2862 15.6331 45.2839C15.6325 45.281 15.6325 45.2792 15.6319 45.2769L7.06006 13.9825C9.71305 13.7814 12.3625 14.3811 14.7173 15.742C17.8069 17.5285 20.0163 20.4129 20.9397 23.8642C20.9806 24.0156 21.0354 24.1589 21.1002 24.2951L25.2113 39.3498C25.512 40.4593 26.5154 41.1895 27.611 41.1895C27.8264 41.1895 28.0459 41.1608 28.2636 41.1018C29.5898 40.7417 30.3726 39.3732 30.013 38.045L23.4619 13.983C26.1161 13.7808 28.7697 14.38 31.1261 15.742C34.2158 17.5285 36.4257 20.4129 37.3492 23.8642L40.4201 35.2601C40.7756 36.5894 42.1391 37.3774 43.4671 37.022C44.7945 36.666 45.5819 35.2998 45.2258 33.9705L43.0614 25.964C43.048 25.8769 43.0305 25.7898 43.0066 25.7027C41.6763 20.7297 44.634 15.6 49.5991 14.2671C54.5642 12.9349 59.6869 15.8964 61.0172 20.8694C62.341 25.8173 59.4259 30.9447 54.4994 32.2845ZM65.8229 19.5798C63.7828 11.9534 55.9277 7.41117 48.3114 9.45428C44.3053 10.5293 41.1515 13.2172 39.3595 16.6329C37.8587 14.532 35.9144 12.7572 33.614 11.4272C29.3732 8.97551 24.4327 8.32428 19.7034 9.59341C19.0648 9.76469 17.295 10.247 17.295 10.247C17.295 10.247 17.574 11.2647 17.6948 11.7225C17.4765 11.5839 17.4292 11.5576 17.2045 11.4272C12.9638 8.97551 8.02377 8.32428 3.29391 9.59341C2.67225 9.76002 1.06761 10.1973 0.973633 10.223L7.93913 36.0229H7.93797L10.8338 46.5951L10.8344 46.5974C12.5067 52.8279 16.4982 58.0342 22.0774 61.2605C25.7974 63.4112 29.9249 64.5096 34.1084 64.5096C36.2051 64.5096 38.3158 64.2337 40.3956 63.6754C52.5054 60.4257 60.0032 48.4541 57.9544 36.3141C60.6465 35.0888 62.8868 33.0614 64.3945 30.446C66.3045 27.1332 66.8117 23.2744 65.8229 19.5798Z" fill="#23AAE2"/>
<path fill-rule="evenodd" clip-rule="evenodd" d="M91.1189 26.6717C92.0984 27.6438 92.5882 28.896 92.5882 30.4276V38.4826H90.3157C89.7058 38.4826 89.2114 37.9868 89.2114 37.3765V31.125C89.2114 30.2815 88.9709 29.6063 88.4899 29.0983C88.0083 28.5903 87.4071 28.3371 86.685 28.3371C85.7569 28.3371 85.0267 28.668 84.4938 29.3309C83.9614 29.9933 83.6946 30.9789 83.6946 32.2866V38.4826H81.3965C80.7866 38.4826 80.2921 37.9868 80.2921 37.3765V31.125C80.2921 30.2815 80.0517 29.6063 79.5701 29.0983C79.0891 28.5903 78.4879 28.3371 77.7664 28.3371C76.8377 28.3371 76.1162 28.6639 75.6008 29.3175C75.0848 29.9716 74.8274 30.9613 74.8274 32.2866V38.4826H72.5293C71.9193 38.4826 71.4243 37.9868 71.4243 37.3765V25.6001H73.7703C74.354 25.6001 74.8274 26.0742 74.8274 26.6588C75.7893 25.6948 77.07 25.2131 78.6682 25.2131C80.5239 25.2131 81.9336 25.9187 82.8961 27.3299C84.0297 25.9187 85.5941 25.2131 87.5875 25.2131C88.9621 25.2131 90.1395 25.6989 91.1189 26.6717Z" fill="#0A5799"/>
<path fill-rule="evenodd" clip-rule="evenodd" d="M95.7544 37.3762V25.5998H98.0525C98.6625 25.5998 99.1569 26.0956 99.1569 26.7064V38.4823H96.8588C96.2488 38.4823 95.7544 37.9871 95.7544 37.3762ZM98.9246 21.0582C99.3203 21.4627 99.5176 21.9403 99.5176 22.491C99.5176 23.0592 99.3203 23.5322 98.9246 23.911C98.5294 24.2898 98.0396 24.4792 97.4553 24.4792C96.8541 24.4792 96.3603 24.2898 95.9733 23.911C95.5869 23.5322 95.3931 23.0592 95.3931 22.491C95.3931 21.9403 95.591 21.4627 95.9861 21.0582C96.3813 20.6537 96.871 20.4514 97.4553 20.4514C98.0396 20.4514 98.5294 20.6537 98.9246 21.0582Z" fill="#0A5799"/>
<path fill-rule="evenodd" clip-rule="evenodd" d="M102.485 37.3761V19.8948H104.783C105.393 19.8948 105.888 20.3899 105.888 21.0008V38.4821H103.59C102.98 38.4821 102.485 37.987 102.485 37.3761Z" fill="#0A5799"/>
<path fill-rule="evenodd" clip-rule="evenodd" d="M109.118 37.3761V19.8948H111.416C112.026 19.8948 112.521 20.3899 112.521 21.0008V38.4821H110.223C109.613 38.4821 109.118 37.987 109.118 37.3761Z" fill="#0A5799"/>
<path fill-rule="evenodd" clip-rule="evenodd" d="M115.848 37.3762V25.5998H118.146C118.756 25.5998 119.251 26.0956 119.251 26.7064V38.4823H116.953C116.343 38.4823 115.848 37.9871 115.848 37.3762ZM119.018 21.0582C119.414 21.4627 119.611 21.9403 119.611 22.491C119.611 23.0592 119.414 23.5322 119.018 23.911C118.623 24.2898 118.133 24.4792 117.549 24.4792C116.948 24.4792 116.454 24.2898 116.067 23.911C115.681 23.5322 115.487 23.0592 115.487 22.491C115.487 21.9403 115.685 21.4627 116.08 21.0582C116.475 20.6537 116.965 20.4514 117.549 20.4514C118.133 20.4514 118.623 20.6537 119.018 21.0582Z" fill="#0A5799"/>
<path fill-rule="evenodd" clip-rule="evenodd" d="M81.0789 56.5204C81.7572 55.8235 82.0969 54.8894 82.0969 53.719C82.0969 52.5487 81.7572 51.611 81.0789 50.9055C80.4 50.1993 79.5361 49.8468 78.4884 49.8468C77.5258 49.8468 76.6753 50.2086 75.9358 50.9312C75.1968 51.6537 74.8279 52.5832 74.8279 53.719C74.8279 54.8549 75.1968 55.7803 75.9358 56.4946C76.6753 57.2084 77.5258 57.5662 78.4884 57.5662C79.5361 57.5662 80.4 57.2172 81.0789 56.5204ZM83.5019 48.8273C84.7651 50.1262 85.3961 51.7572 85.3961 53.719C85.3961 55.6809 84.7692 57.3078 83.5148 58.5985C82.2598 59.8893 80.7824 60.5347 79.0808 60.5347C77.3968 60.5347 75.979 60.0699 74.8279 59.1405V64.5361H72.4305C71.8749 64.5361 71.4248 64.0854 71.4248 63.5295V47.2653H73.7964C74.3662 47.2653 74.8279 47.7277 74.8279 48.2982C75.9615 47.3512 77.3793 46.8777 79.0808 46.8777C80.7649 46.8777 82.2388 47.5277 83.5019 48.8273Z" fill="#0A5799"/>
<path fill-rule="evenodd" clip-rule="evenodd" d="M87.2183 59.1404V47.2652H89.5163C90.1263 47.2652 90.6207 47.7604 90.6207 48.3719V60.1477H88.2234C87.6683 60.1477 87.2183 59.6964 87.2183 59.1404ZM90.3884 42.6745C90.7842 43.0785 90.9815 43.5561 90.9815 44.1073C90.9815 44.675 90.7842 45.1479 90.3884 45.5267C89.9932 45.9055 89.5041 46.0949 88.9192 46.0949C88.318 46.0949 87.8242 45.9055 87.4371 45.5267C87.0507 45.1479 86.8569 44.675 86.8569 44.1073C86.8569 43.5561 87.0548 43.0785 87.45 42.6745C87.8452 42.27 88.3349 42.0671 88.9192 42.0671C89.5041 42.0671 89.9932 42.27 90.3884 42.6745Z" fill="#0A5799"/>
<path fill-rule="evenodd" clip-rule="evenodd" d="M116.276 56.4943C117.015 55.7799 117.384 54.8551 117.384 53.7193C117.384 52.5834 117.015 51.654 116.276 50.9308C115.537 50.2083 114.686 49.8464 113.724 49.8464C112.676 49.8464 111.813 50.1995 111.133 50.9051C110.455 51.6107 110.115 52.5484 110.115 53.7193C110.115 54.889 110.455 55.8232 111.133 56.52C111.813 57.2168 112.676 57.5658 113.724 57.5658C114.686 57.5658 115.537 57.2087 116.276 56.4943ZM120.787 60.1473H118.39C117.834 60.1473 117.384 59.6966 117.384 59.1401C116.233 60.0696 114.816 60.5343 113.131 60.5343C111.43 60.5343 109.952 59.889 108.698 58.5982C107.443 57.3075 106.816 55.6811 106.816 53.7193C106.816 51.7568 107.448 50.1264 108.711 48.8269C109.973 47.528 111.447 46.8779 113.131 46.8779C114.832 46.8779 116.251 47.3509 117.384 48.2979V47.2649H119.682C120.292 47.2649 120.787 47.7606 120.787 48.3715V60.1473Z" fill="#0A5799"/>
<path fill-rule="evenodd" clip-rule="evenodd" d="M134.465 48.3881C135.41 49.3948 135.882 50.699 135.882 52.299V60.1476H133.485C132.93 60.1476 132.48 59.6963 132.48 59.1404V53.0221C132.48 52.1102 132.243 51.3783 131.771 50.8276C131.298 50.2769 130.667 50.0016 129.876 50.0016C127.745 50.0016 126.68 51.4818 126.68 54.4421V60.1476H124.283C123.727 60.1476 123.277 59.6963 123.277 59.1404V47.2652H125.576C126.185 47.2652 126.68 47.7603 126.68 48.3718V48.4267C127.711 47.3944 129.06 46.8782 130.727 46.8782C132.274 46.8782 133.519 47.3815 134.465 48.3881Z" fill="#0A5799"/>
<mask id="mask0_1722_922" style="mask-type:alpha" maskUnits="userSpaceOnUse" x="137" y="46" width="15" height="20">
<path d="M137.435 46.8779H151.02V65.0523H137.435V46.8779Z" fill="#0A5799"/>
</mask>
<g mask="url(#mask0_1722_922)">
<path fill-rule="evenodd" clip-rule="evenodd" d="M146.294 55.829C147.244 55.1632 147.72 54.2536 147.72 53.0996C147.72 51.9457 147.244 51.0361 146.294 50.3702C145.69 49.9476 144.974 49.7395 144.238 49.7435C143.219 49.7494 142.378 50.0586 141.714 50.673C141.044 51.2927 140.709 52.1018 140.709 53.0996C140.709 54.0981 141.044 54.9066 141.714 55.5262C142.378 56.14 143.219 56.4499 144.238 56.4558C144.974 56.4598 145.69 56.2517 146.294 55.829ZM151.02 58.908C151.02 60.8529 150.401 62.3629 149.164 63.4391C147.926 64.5142 146.251 65.0526 144.137 65.0526C141.147 65.0526 139.059 64.1056 137.873 62.2127L139.833 60.7273C140.268 60.3964 140.876 60.4502 141.264 60.8354C141.575 61.1446 141.879 61.3843 142.178 61.5544C142.676 61.8385 143.329 61.98 144.137 61.98C145.237 61.98 146.109 61.662 146.754 61.0254C147.398 60.3882 147.72 59.5102 147.72 58.3919V58.1855C146.741 58.977 145.392 59.3728 143.673 59.3728C142.024 59.3728 140.571 58.7619 139.317 57.5401C138.062 56.3178 137.435 54.8382 137.435 53.0996C137.435 51.3786 138.062 49.9113 139.317 48.6977C140.571 47.4847 142.024 46.8779 143.673 46.8779C145.357 46.8779 146.706 47.2737 147.72 48.0658V47.2655H149.892C150.501 47.2655 150.995 47.7589 150.997 48.3692L151.02 58.908Z" fill="#0A5799"/>
</g>
<path fill-rule="evenodd" clip-rule="evenodd" d="M162.029 56.4943C162.768 55.7799 163.137 54.8551 163.137 53.7193C163.137 52.5834 162.768 51.658 162.029 50.9437C161.29 50.2299 160.448 49.8727 159.502 49.8727C158.523 49.8727 157.659 50.2252 156.912 50.9308C156.164 51.6364 155.79 52.5659 155.79 53.7193C155.79 54.8721 156.164 55.8016 156.912 56.5071C157.659 57.2127 158.523 57.5658 159.502 57.5658C160.448 57.5658 161.29 57.2086 162.029 56.4943ZM164.413 48.8526C165.762 50.1177 166.437 51.7399 166.437 53.7193C166.437 55.6987 165.762 57.3203 164.413 58.5853C163.064 59.8504 161.427 60.4829 159.502 60.4829C157.543 60.4829 155.885 59.8504 154.527 58.5853C153.17 57.3203 152.491 55.6987 152.491 53.7193C152.491 51.7399 153.17 50.1177 154.527 48.8526C155.885 47.5876 157.543 46.9551 159.502 46.9551C161.427 46.9551 163.064 47.5876 164.413 48.8526Z" fill="#0A5799"/>
<path fill-rule="evenodd" clip-rule="evenodd" d="M98.5093 64.5236H95.4529L97.5099 59.7335L92.187 47.269H95.2305C95.6765 47.269 96.0781 47.5385 96.2491 47.9507L99.3615 55.4848L102.91 47.269H106.691L99.5203 63.8583C99.3457 64.2623 98.9482 64.5236 98.5093 64.5236Z" fill="#0A5799"/>
</g>
<defs>
<clipPath id="clip0_1722_922">
<rect width="167.549" height="74.6966" fill="white" transform="translate(0.973633 0.299561)"/>
</clipPath>
</defs>
</svg>
